<svg width="875" height="200" viewBox="0 0 875 200" fill="none" xmlns="http://www.w3.org/2000/svg">
<path d="M0 16.4056H55.1581V197.721H74.9589V16.4056H129.833V0H0V16.4056V16.4056Z" fill="#003BB3"/>
<path d="M285.679 120.516C285.679 71.2976 252.018 41.0315 208.457 41.0315C165.179 41.0315 131.235 71.2976 131.235 120.516C131.235 169.45 164.331 200 207.891 200C251.452 200 285.679 169.45 285.679 120.516V120.516ZM151.318 120.516C151.318 78.0858 178.757 58.2863 208.174 58.2863C237.592 58.2863 265.313 78.0858 265.313 120.516C265.313 162.945 237.026 182.745 207.891 182.745C178.474 182.745 151.318 162.945 151.318 120.516V120.516Z" fill="#003BB3"/>
<path d="M430.018 0.320557V166.36L320.55 0.320557H300.751V198.041H320.55V31.7181L430.018 198.041H449.819V0.320557H430.018V0.320557Z" fill="#003BB3"/>
<path d="M651.649 155.82C651.649 186.651 666.075 197.683 692.947 197.683H714.161V180.711H696.06C678.238 180.711 671.733 174.771 671.733 155.82V59.9287H714.161V43.2399H671.733V4.48779H651.649V43.2399H630.152V59.9287H651.649V155.82Z" fill="#003BB3"/>
<path d="M800.704 58.0031C829.274 58.0031 855.297 76.1065 854.448 112.03H745.829C748.092 76.1065 772.702 58.0031 800.704 58.0031V58.0031ZM872.269 148.801H851.336C845.68 169.45 827.858 183.311 801.552 183.311C772.702 183.311 747.526 164.36 745.829 128.154H873.965C874.531 122.778 874.531 118.818 874.531 112.596C874.531 73.2773 846.811 41.0315 801.552 41.0315C757.143 41.0315 725.745 71.2976 725.745 120.516C725.745 169.45 757.709 200 801.552 200C840.304 200 865.197 177.936 872.269 148.801V148.801Z" fill="#003BB3"/>
<path fill-rule="evenodd" clip-rule="evenodd" d="M550.299 199.902C594.447 199.902 630.234 164.113 630.234 119.967C630.234 75.8182 594.447 40.0309 550.299 40.0309C506.152 40.0309 470.363 75.8182 470.363 119.967C470.363 164.113 506.152 199.902 550.299 199.902ZM606.928 129.955C607.513 126.611 611.349 123.479 611.349 119.967C611.349 116.456 607.513 113.324 606.928 109.978C606.325 106.539 608.848 102.289 607.681 99.0806C606.494 95.8181 601.817 94.1845 600.099 91.2183C598.366 88.2216 599.278 83.3588 597.066 80.7228C594.847 78.081 589.896 78.1411 587.254 75.9212C584.621 73.7084 583.824 68.8199 580.829 67.0878C577.861 65.3714 573.231 67.1135 569.967 65.9248C566.759 64.7577 564.339 60.4369 560.901 59.8348C557.556 59.2482 553.809 62.4722 550.298 62.4722C546.786 62.4722 543.041 59.2482 539.695 59.8348C536.258 60.4369 533.837 64.7577 530.629 65.9248C527.364 67.1135 522.735 65.3714 519.767 67.0878C516.772 68.8199 515.976 73.7084 513.342 75.9212C510.7 78.1411 505.75 78.081 503.53 80.7228C501.319 83.3588 502.23 88.2216 500.497 91.2183C498.78 94.1845 494.103 95.8164 492.915 99.0806C491.747 102.289 494.27 106.539 493.668 109.978C493.083 113.324 489.247 116.456 489.247 119.967C489.247 123.479 493.083 126.611 493.668 129.955C494.27 133.393 491.747 137.644 492.915 140.852C494.103 144.116 498.78 145.748 500.497 148.716C502.23 151.712 501.319 156.576 503.53 159.212C505.75 161.852 510.7 161.793 513.342 164.012C515.976 166.224 516.772 171.113 519.767 172.846C522.735 174.563 527.364 172.821 530.629 174.008C533.837 175.176 536.258 179.497 539.695 180.1C543.041 180.686 546.786 177.461 550.298 177.461C553.809 177.461 557.556 180.686 560.901 180.1C564.339 179.497 566.759 175.176 569.967 174.008C573.231 172.821 577.861 174.563 580.829 172.846C583.824 171.113 584.621 166.224 587.254 164.012C589.896 161.793 594.847 161.852 597.066 159.212C599.278 156.576 598.366 151.712 600.099 148.716C601.817 145.748 606.494 144.116 607.681 140.852C608.848 137.644 606.325 133.393 606.928 129.955V129.955Z" fill="#003BB3"/>
<path fill-rule="evenodd" clip-rule="evenodd" d="M581.444 94.4024C574.101 85.6363 563.074 80.0618 550.744 80.0618C528.636 80.0618 510.714 97.9852 510.714 120.094C510.714 121.04 510.747 121.978 510.811 122.908C511.158 122.821 511.537 122.777 511.944 122.777C514.627 122.777 518.769 124.622 524.251 128.259C528.845 131.307 532.946 134.708 534.924 136.673C540.296 128.675 545.524 121.944 550.898 116.095C553.981 112.74 557.152 109.648 560.323 106.902C563.733 103.95 567.259 101.298 570.799 99.0222L570.809 99.016C574.238 96.8966 578.805 94.3676 581.081 94.3676H581.169C581.263 94.3704 581.355 94.3822 581.444 94.4024ZM582.553 95.7867C582.553 96.011 582.499 96.2353 582.391 96.4416C581.9 97.3826 580.637 98.5531 578.549 100.488L578.511 100.523C571.606 106.919 555.435 121.901 539.471 156.076C539.058 156.959 538.307 157.59 537.409 157.849C541.58 159.322 546.069 160.124 550.744 160.124C572.852 160.124 590.774 142.202 590.774 120.094C590.774 110.952 587.71 102.526 582.553 95.7867ZM533.593 156.274C533.579 156.248 533.565 156.222 533.552 156.196C528.33 146.114 521.122 136.673 512.13 128.138L512.092 128.102L512.062 128.064C511.87 127.836 511.628 127.598 511.37 127.347C513.715 140.163 522.164 150.846 533.593 156.274Z" fill="#003BB3"/>
</svg>
